<svg width="15" height="21" viewBox="0 0 15 21" fill="none" xmlns="http://www.w3.org/2000/svg">
<path d="M14.2969 7.15632C14.2371 5.39458 13.4953 3.72497 12.2279 2.49982C10.9605 1.27468 9.26665 0.589844 7.50391 0.589844C5.74116 0.589844 4.04735 1.27468 2.77995 2.49982C1.51255 3.72497 0.770692 5.39458 0.710938 7.15632C0.711051 8.31164 1.00977 9.44733 1.57813 10.4532C1.57535 10.4792 1.57535 10.5054 1.57813 10.5313L7.14062 20.1641C7.17469 20.2242 7.2241 20.2742 7.2838 20.309C7.34351 20.3438 7.41137 20.3622 7.48047 20.3622C7.54957 20.3622 7.61743 20.3438 7.67713 20.309C7.73684 20.2742 7.78624 20.2242 7.82031 20.1641L13.4062 10.5001C13.4062 10.5001 13.4062 10.5001 13.4062 10.461C13.9808 9.45371 14.2874 8.31591 14.2969 7.15632ZM7.5 19.1954L2.32031 10.2188C2.32303 10.1928 2.32303 10.1667 2.32031 10.1407C1.80046 9.23253 1.53087 8.20271 1.53906 7.15632C1.537 6.23314 1.74745 5.32187 2.1541 4.49307C2.56075 3.66428 3.1527 2.9402 3.88411 2.3769C4.61551 1.8136 5.46676 1.42619 6.37192 1.24468C7.27708 1.06317 8.21188 1.09243 9.10392 1.33018C9.99596 1.56793 10.8213 2.00781 11.5161 2.61574C12.2108 3.22367 12.7563 3.98335 13.1104 4.83595C13.4644 5.68855 13.6175 6.61119 13.5577 7.53244C13.4979 8.45368 13.2269 9.34881 12.7656 10.1485C12.7646 10.1641 12.7646 10.1798 12.7656 10.1954L7.5 19.1954Z" fill="#4C7680"/>
<path d="M7.5 4.25C7.01945 4.25 6.5497 4.3925 6.15014 4.65948C5.75058 4.92645 5.43916 5.30592 5.25526 5.74989C5.07137 6.19385 5.02325 6.68238 5.117 7.1537C5.21075 7.62501 5.44215 8.05794 5.78195 8.39774C6.12175 8.73753 6.55468 8.96894 7.02599 9.06269C7.49731 9.15644 7.98584 9.10832 8.4298 8.92443C8.87377 8.74053 9.25324 8.42911 9.52021 8.02955C9.78719 7.62999 9.92969 7.16023 9.92969 6.67969C9.92969 6.03529 9.67371 5.41729 9.21805 4.96164C8.7624 4.50598 8.14439 4.25 7.5 4.25ZM7.5 8.32812C7.17397 8.32812 6.85526 8.23145 6.58418 8.05031C6.31309 7.86918 6.10181 7.61173 5.97704 7.31052C5.85228 7.00931 5.81963 6.67786 5.88324 6.35809C5.94684 6.03833 6.10384 5.7446 6.33438 5.51407C6.56492 5.28353 6.85864 5.12653 7.17841 5.06292C7.49817 4.99932 7.82962 5.03196 8.13083 5.15673C8.43204 5.2815 8.68949 5.49278 8.87063 5.76386C9.05176 6.03495 9.14844 6.35366 9.14844 6.67969C9.14947 6.89682 9.10759 7.11202 9.02521 7.31292C8.94283 7.51382 8.82157 7.69646 8.66839 7.85036C8.51522 8.00426 8.33315 8.12638 8.13264 8.20971C7.93213 8.29304 7.71714 8.33594 7.5 8.33594V8.32812Z" fill="#4C7680"/>
</svg>
