<svg width="18" height="18" viewBox="0 0 18 18" fill="none" xmlns="http://www.w3.org/2000/svg" stroke="white" stroke-width="0.5">
<g clip-path="url(#clip0_32_2)">
<path d="M16.4152 4.47603C16.3821 4.4316 16.3405 4.39414 16.2929 4.36578C16.2453 4.33742 16.1926 4.31873 16.1377 4.31076C16.0829 4.30279 16.027 4.30571 15.9733 4.31935C15.9195 4.33299 15.869 4.35708 15.8246 4.39025L9.01978 9.46962C8.99544 9.48788 8.96583 9.49775 8.93541 9.49775C8.90498 9.49775 8.87537 9.48788 8.85103 9.46962L2.17978 4.36775C2.13574 4.33414 2.0855 4.30953 2.03195 4.29534C1.9784 4.28114 1.92257 4.27763 1.86766 4.28501C1.81275 4.29239 1.75983 4.31051 1.71193 4.33834C1.66402 4.36617 1.62206 4.40316 1.58845 4.4472C1.55484 4.49125 1.53024 4.54148 1.51604 4.59503C1.50184 4.64859 1.49833 4.70441 1.50571 4.75932C1.51309 4.81423 1.53121 4.86715 1.55904 4.91506C1.58687 4.96296 1.62386 5.00492 1.66791 5.03853L6.91322 9.05056L1.72556 12.9599C1.68087 12.9933 1.64318 13.0351 1.61465 13.083C1.58612 13.1309 1.5673 13.1839 1.55927 13.2391C1.55124 13.2943 1.55415 13.3505 1.56785 13.4045C1.58154 13.4586 1.60574 13.5094 1.63908 13.5541C1.67241 13.5988 1.71422 13.6365 1.76212 13.665C1.81002 13.6935 1.86306 13.7123 1.91824 13.7204C1.97341 13.7284 2.02962 13.7255 2.08366 13.7118C2.13771 13.6981 2.18853 13.6739 2.23322 13.6406L7.60931 9.58212L8.33775 10.1446C8.5076 10.2746 8.71518 10.3458 8.92907 10.3473C9.14296 10.3488 9.35153 10.2806 9.52322 10.1531L10.2882 9.58212L15.7276 13.6406C15.772 13.6737 15.8225 13.6978 15.8762 13.7114C15.9299 13.725 15.9858 13.728 16.0407 13.72C16.0955 13.712 16.1483 13.6933 16.1959 13.665C16.2435 13.6366 16.2851 13.5992 16.3182 13.5548C16.3514 13.5104 16.3754 13.4599 16.3891 13.4061C16.4027 13.3524 16.4056 13.2965 16.3976 13.2417C16.3897 13.1869 16.371 13.1341 16.3426 13.0865C16.3143 13.0389 16.2769 12.9973 16.2324 12.9642L10.9927 9.04915L16.3295 5.06244C16.418 4.99559 16.4766 4.89658 16.4927 4.78683C16.5087 4.67708 16.4809 4.56543 16.4152 4.47603Z" fill="#4C7680"/>
<path d="M15.8906 2.67188H2.10938C1.54993 2.67188 1.01341 2.89411 0.617822 3.2897C0.222237 3.68528 0 4.22181 0 4.78125L0 13.2188C0 13.7782 0.222237 14.3147 0.617822 14.7103C1.01341 15.1059 1.54993 15.3281 2.10938 15.3281H15.8906C16.4501 15.3281 16.9866 15.1059 17.3822 14.7103C17.7778 14.3147 18 13.7782 18 13.2188V4.78125C18 4.22181 17.7778 3.68528 17.3822 3.2897C16.9866 2.89411 16.4501 2.67188 15.8906 2.67188ZM17.1562 13.2188C17.1562 13.5544 17.0229 13.8763 16.7856 14.1137C16.5482 14.351 16.2263 14.4844 15.8906 14.4844H2.10938C1.77371 14.4844 1.45179 14.351 1.21444 14.1137C0.977092 13.8763 0.84375 13.5544 0.84375 13.2188V4.78125C0.84375 4.44559 0.977092 4.12367 1.21444 3.88632C1.45179 3.64897 1.77371 3.51562 2.10938 3.51562H15.8906C16.2263 3.51562 16.5482 3.64897 16.7856 3.88632C17.0229 4.12367 17.1562 4.44559 17.1562 4.78125V13.2188Z" fill="#4C7680"/>
</g>
<defs>
<clipPath id="clip0_32_2">
<rect width="18" height="18" fill="white"/>
</clipPath>
</defs>
</svg>
