<svg width="25" height="41" viewBox="0 0 25 41" fill="none" xmlns="http://www.w3.org/2000/svg">
<path fill-rule="evenodd" clip-rule="evenodd" d="M1.07094 12.494C1.07094 12.494 2.4767 16.8118 6.01924 25.0094C6.01924 25.0094 6.01924 25.0094 6.01924 25.072C9.618 33.2697 11.9235 36.9617 11.9235 36.9617C14.2851 39.7777 18.2213 41.0292 22.4386 38.7765C24.7441 37.5249 24.3504 34.5838 22.2137 29.7027C20.3018 25.3223 18.1651 25.1972 16.7593 26.5739C16.4781 26.8242 15.5785 27.7628 15.5222 28.0757C15.5222 28.0757 14.6788 29.6402 11.4736 22.1935C8.26846 14.8093 9.56177 15.1848 9.56177 15.1848C9.78669 15.2474 11.0238 15.4351 11.3612 15.31C13.1605 14.8719 14.6225 12.7443 12.542 7.98843C10.4052 3.1074 8.60585 0.917192 6.30039 2.16874C2.81409 3.98348 0.564861 8.67678 1.07094 12.494Z" stroke="#4C7680" stroke-width="2"/>
</svg>
