<svg width="177" height="28" viewBox="0 0 177 28" fill="none" xmlns="http://www.w3.org/2000/svg">
<path d="M19.2098 4.11808C19.4818 5.77275 19.6178 7.37075 19.6178 8.91208C19.6178 12.2894 19.0738 15.3721 17.9858 18.1601C16.8978 20.9481 15.4811 23.1468 13.7358 24.7561C11.9905 26.3654 10.2111 27.1701 8.39779 27.1701C7.49112 27.1701 6.43712 26.8414 5.23579 26.1841C4.05712 25.5041 3.03712 24.6994 2.17579 23.7701C1.31446 22.8181 0.883789 21.9794 0.883789 21.2541C0.883789 19.6674 1.15579 17.1174 1.69979 13.6041C2.24379 10.0907 2.88979 7.04208 3.63779 4.45808C4.38579 4.09542 5.16779 3.91408 5.98379 3.91408C6.84512 3.91408 7.59312 4.15208 8.22779 4.62808C8.86246 5.08142 9.29312 5.72742 9.51979 6.56608C8.86246 8.08475 8.21646 10.2267 7.58179 12.9921C6.96979 15.7574 6.66379 18.0127 6.66379 19.7581C6.66379 21.4581 6.99246 22.3081 7.64979 22.3081C8.62446 22.3081 9.57646 21.6848 10.5058 20.4381C11.4351 19.1688 12.1945 17.5368 12.7838 15.5421C13.3731 13.5247 13.6678 11.4847 13.6678 9.42208C13.6678 7.88075 13.4865 6.43008 13.1238 5.07008C14.2571 3.82342 15.4585 3.20008 16.7278 3.20008C17.6118 3.20008 18.4391 3.50608 19.2098 4.11808Z" fill="#006ACC" fill-opacity="0.85"/>
<path d="M25.3269 27.0001C24.6695 27.0001 23.9329 26.8074 23.1169 26.4221C22.3235 26.0141 21.6435 25.5494 21.0769 25.0281C20.5102 24.4841 20.2269 24.0194 20.2269 23.6341C20.2269 23.2487 20.3855 22.2968 20.7029 20.7781C21.0202 19.2594 21.2242 18.2847 21.3149 17.8541C21.9949 14.7261 22.4482 12.5614 22.6749 11.3601L23.0149 9.45608C23.4909 6.82675 23.9215 4.70742 24.3069 3.09808C24.7149 1.48875 25.1229 0.684082 25.5309 0.684082C26.0069 0.684082 26.6302 0.888082 27.4009 1.29608C28.1942 1.70408 28.8855 2.18008 29.4749 2.72408C30.0642 3.26808 30.3589 3.74408 30.3589 4.15208C30.3589 4.69608 30.2569 5.22875 30.0529 5.75008C29.8715 6.24875 29.5882 6.90608 29.2029 7.72208C28.8402 8.42475 28.5909 8.96875 28.4549 9.35408C28.0242 10.6914 27.5595 12.5501 27.0609 14.9301C26.5849 17.3101 26.1882 19.6107 25.8709 21.8321C26.5962 21.4694 27.1629 21.1634 27.5709 20.9141C27.9789 20.6421 28.4549 20.2794 28.9989 19.8261C29.9962 20.1661 30.7329 20.6421 31.2089 21.2541C31.7075 21.8434 31.9569 22.5234 31.9569 23.2941C31.9569 23.8381 31.5715 24.4048 30.8009 24.9941C30.0302 25.5608 29.1122 26.0367 28.0469 26.4221C26.9815 26.8074 26.0749 27.0001 25.3269 27.0001Z" fill="#006ACC" fill-opacity="0.85"/>
<path d="M41.0269 13.6381C40.2789 17.0608 39.7916 19.8487 39.5649 22.0021C41.0156 21.2994 42.1829 20.5741 43.0669 19.8261C44.0642 20.1661 44.8009 20.6421 45.2769 21.2541C45.7756 21.8434 46.0249 22.5234 46.0249 23.2941C46.0249 23.8381 45.6396 24.4048 44.8689 24.9941C44.0982 25.5608 43.1802 26.0367 42.1149 26.4221C41.0496 26.8074 40.1429 27.0001 39.3949 27.0001C38.7376 27.0001 38.0009 26.8074 37.1849 26.4221C36.3916 26.0141 35.7116 25.5494 35.1449 25.0281C34.5782 24.4841 34.2949 24.0194 34.2949 23.6341C34.2949 23.3167 34.4082 22.6368 34.6349 21.5941C34.8842 20.5288 35.0996 19.6221 35.2809 18.8741C35.4849 18.1034 35.6322 17.5368 35.7229 17.1741L36.5389 13.9101L34.4649 14.0461C34.0796 13.8647 33.7849 13.5814 33.5809 13.1961C33.3769 12.8107 33.2749 12.3687 33.2749 11.8701C33.2749 10.9634 33.6036 10.1928 34.2609 9.55808C35.0769 9.60342 36.0742 9.64875 37.2529 9.69408C37.2529 8.24342 37.4116 6.64542 37.7289 4.90008C38.0462 3.13208 38.3976 2.24808 38.7829 2.24808C39.2589 2.24808 39.8596 2.45208 40.5849 2.86008C41.3102 3.26808 41.9449 3.74408 42.4889 4.28808C43.0329 4.83208 43.3049 5.30808 43.3049 5.71608C43.3049 6.23742 43.2029 6.77008 42.9989 7.31408C42.8176 7.83542 42.5116 8.56075 42.0809 9.49008C42.4662 9.44475 43.4409 9.28608 45.0049 9.01408L45.7869 8.87808C46.1949 9.10475 46.5009 9.43342 46.7049 9.86408C46.9316 10.2947 47.0449 10.7594 47.0449 11.2581C47.0449 11.6661 46.9656 12.0627 46.8069 12.4481C46.6482 12.8334 46.4102 13.1621 46.0929 13.4341L41.0269 13.6381Z" fill="#006ACC" fill-opacity="0.85"/>
<path d="M53.8311 27.0001C53.2191 27.0001 52.5504 26.8074 51.8251 26.4221C51.0998 26.0141 50.4764 25.5494 49.9551 25.0281C49.4338 24.4841 49.1731 24.0307 49.1731 23.6681C49.1731 23.2374 49.2638 22.6821 49.4451 22.0021C49.6264 21.2994 49.8984 20.3928 50.2611 19.2821C50.6238 18.1261 50.8958 17.2081 51.0771 16.5281C51.2584 15.8254 51.3491 15.2587 51.3491 14.8281C51.3491 14.6467 51.2471 14.4541 51.0431 14.2501C50.8391 14.0461 50.5218 13.7741 50.0911 13.4341C49.5924 13.0261 49.2298 12.7087 49.0031 12.4821C48.7764 12.2554 48.6631 12.0288 48.6631 11.8021C48.6631 11.3261 48.8898 10.7707 49.3431 10.1361C49.7964 9.50142 50.3291 8.95742 50.9411 8.50408C51.5531 8.05075 52.0744 7.82408 52.5051 7.82408C52.9811 7.82408 53.5251 8.03942 54.1371 8.47008C54.7491 8.90075 55.2818 9.39942 55.7351 9.96608C56.1884 10.5101 56.4151 10.9294 56.4151 11.2241C56.4151 12.0854 56.2451 13.2187 55.9051 14.6241L56.3131 14.8281C56.8344 13.9894 57.4011 12.9921 58.0131 11.8361C58.6478 10.6574 59.0331 9.93208 59.1691 9.66008L59.8151 8.43608C61.3791 8.39075 62.5464 8.67408 63.3171 9.28608C64.0878 9.89808 64.4731 10.7141 64.4731 11.7341C64.4731 12.7314 64.1444 13.7287 63.4871 14.7261C61.8551 15.2701 60.4611 15.8141 59.3051 16.3581C58.1718 16.8794 57.0271 17.5027 55.8711 18.2281C55.8031 20.7441 55.5991 22.8408 55.2591 24.5181C54.9418 26.1728 54.4658 27.0001 53.8311 27.0001Z" fill="#006ACC" fill-opacity="0.85"/>
<path d="M80.5662 22.0021C81.9489 21.3221 83.1162 20.5968 84.0682 19.8261C85.0656 20.1661 85.8022 20.6421 86.2782 21.2541C86.7769 21.8434 87.0262 22.5234 87.0262 23.2941C87.0262 23.8381 86.6409 24.4048 85.8702 24.9941C85.0996 25.5608 84.1816 26.0367 83.1162 26.4221C82.0509 26.8074 81.1442 27.0001 80.3962 27.0001C79.8749 27.0001 79.2742 26.8074 78.5942 26.4221C77.9369 26.0367 77.3589 25.5834 76.8602 25.0621C76.3842 24.5408 76.1462 24.1327 76.1462 23.8381C76.1462 23.6114 76.2369 23.3054 76.4182 22.9201C76.6222 22.5348 76.8376 22.1381 77.0642 21.7301C77.2909 21.3221 77.4382 21.0501 77.5062 20.9141L76.6562 20.4381C75.4549 22.4101 74.2989 23.9968 73.1882 25.1981C72.1002 26.3994 71.0236 27.0001 69.9582 27.0001C69.2329 27.0001 68.4622 26.6828 67.6462 26.0481C66.8529 25.4134 66.1729 24.6428 65.6062 23.7361C65.0622 22.8294 64.7902 22.0247 64.7902 21.3221C64.7902 19.3047 65.2096 17.2421 66.0482 15.1341C66.8869 13.0261 68.0542 11.2807 69.5502 9.89808C71.0689 8.51542 72.7802 7.82408 74.6842 7.82408C75.3642 7.82408 76.0556 8.13008 76.7582 8.74208C77.4609 9.35408 77.9142 9.97742 78.1182 10.6121C78.2316 10.1134 78.3902 9.68275 78.5942 9.32008C78.8209 8.93475 79.0589 8.74208 79.3082 8.74208C79.8976 8.74208 80.5436 8.95742 81.2462 9.38808C81.9716 9.79608 82.5836 10.2834 83.0822 10.8501C83.5809 11.3941 83.8302 11.8247 83.8302 12.1421C83.8076 12.5727 83.6262 13.2868 83.2862 14.2841C82.9689 15.2814 82.4476 16.8001 81.7222 18.8401C81.2916 19.9508 80.9062 21.0047 80.5662 22.0021ZM70.1282 22.2741C71.9642 21.1408 73.5622 19.7467 74.9222 18.0921C76.2822 16.4147 77.2116 14.5674 77.7102 12.5501C77.0982 12.2781 76.5202 12.1421 75.9762 12.1421C74.9109 12.1421 73.9589 12.6181 73.1202 13.5701C72.2816 14.5221 71.6129 15.7688 71.1142 17.3101C70.6156 18.8514 70.2869 20.5061 70.1282 22.2741Z" fill="#006ACC" fill-opacity="0.85"/>
<path d="M94.4109 27.0001C93.8895 27.0001 93.2662 26.8074 92.5409 26.4221C91.8382 26.0367 91.2149 25.5834 90.6709 25.0621C90.1495 24.5408 89.8889 24.1101 89.8889 23.7701C89.8889 23.1808 90.4442 20.1774 91.5549 14.7601C91.6909 14.1254 91.9062 13.0488 92.2009 11.5301C92.5182 9.98875 92.7336 8.87808 92.8469 8.19808L91.5889 8.40208C90.8862 7.74475 90.5349 6.91742 90.5349 5.92008C90.5349 5.21742 90.7276 4.49208 91.1129 3.74408C92.9489 3.26808 94.8075 3.03008 96.6889 3.03008C98.6835 3.03008 100.531 3.29075 102.231 3.81208C103.954 4.33342 105.348 5.13808 106.413 6.22608C107.478 7.29142 108.011 8.62875 108.011 10.2381C108.011 11.6661 107.535 13.0261 106.583 14.3181C105.654 15.5874 104.294 16.6414 102.503 17.4801C100.712 18.3187 98.6042 18.8287 96.1789 19.0101C96.0202 20.0981 95.8956 21.0841 95.8049 21.9681C95.6009 23.6908 95.4082 24.9601 95.2269 25.7761C95.0455 26.5921 94.7735 27.0001 94.4109 27.0001ZM96.6889 14.7941C98.6609 14.4087 100.18 13.8194 101.245 13.0261C102.333 12.2101 102.877 11.3034 102.877 10.3061C102.877 9.62608 102.537 9.05942 101.857 8.60608C101.2 8.13008 100.304 7.89208 99.1709 7.89208C98.7629 7.89208 98.3209 7.92608 97.8449 7.99408L97.3009 11.1901C96.9835 12.9807 96.7795 14.1821 96.6889 14.7941Z" fill="#006ACC" fill-opacity="0.85"/>
<path d="M113.282 27.0001C112.625 27.0001 111.888 26.8074 111.072 26.4221C110.279 26.0141 109.599 25.5494 109.032 25.0281C108.465 24.4841 108.182 24.0194 108.182 23.6341C108.182 23.2487 108.341 22.2968 108.658 20.7781C108.975 19.2594 109.179 18.2847 109.27 17.8541C109.95 14.7261 110.403 12.5614 110.63 11.3601L110.97 9.45608C111.446 6.82675 111.877 4.70742 112.262 3.09808C112.67 1.48875 113.078 0.684082 113.486 0.684082C113.962 0.684082 114.585 0.888082 115.356 1.29608C116.149 1.70408 116.841 2.18008 117.43 2.72408C118.019 3.26808 118.314 3.74408 118.314 4.15208C118.314 4.69608 118.212 5.22875 118.008 5.75008C117.827 6.24875 117.543 6.90608 117.158 7.72208C116.795 8.42475 116.546 8.96875 116.41 9.35408C115.979 10.6914 115.515 12.5501 115.016 14.9301C114.54 17.3101 114.143 19.6107 113.826 21.8321C114.551 21.4694 115.118 21.1634 115.526 20.9141C115.934 20.6421 116.41 20.2794 116.954 19.8261C117.951 20.1661 118.688 20.6421 119.164 21.2541C119.663 21.8434 119.912 22.5234 119.912 23.2941C119.912 23.8381 119.527 24.4048 118.756 24.9941C117.985 25.5608 117.067 26.0367 116.002 26.4221C114.937 26.8074 114.03 27.0001 113.282 27.0001Z" fill="#006ACC" fill-opacity="0.85"/>
<path d="M137.244 22.0021C138.627 21.3221 139.794 20.5968 140.746 19.8261C141.743 20.1661 142.48 20.6421 142.956 21.2541C143.455 21.8434 143.704 22.5234 143.704 23.2941C143.704 23.8381 143.319 24.4048 142.548 24.9941C141.777 25.5608 140.859 26.0367 139.794 26.4221C138.729 26.8074 137.822 27.0001 137.074 27.0001C136.553 27.0001 135.952 26.8074 135.272 26.4221C134.615 26.0367 134.037 25.5834 133.538 25.0621C133.062 24.5408 132.824 24.1327 132.824 23.8381C132.824 23.6114 132.915 23.3054 133.096 22.9201C133.3 22.5348 133.515 22.1381 133.742 21.7301C133.969 21.3221 134.116 21.0501 134.184 20.9141L133.334 20.4381C132.133 22.4101 130.977 23.9968 129.866 25.1981C128.778 26.3994 127.701 27.0001 126.636 27.0001C125.911 27.0001 125.14 26.6828 124.324 26.0481C123.531 25.4134 122.851 24.6428 122.284 23.7361C121.74 22.8294 121.468 22.0247 121.468 21.3221C121.468 19.3047 121.887 17.2421 122.726 15.1341C123.565 13.0261 124.732 11.2807 126.228 9.89808C127.747 8.51542 129.458 7.82408 131.362 7.82408C132.042 7.82408 132.733 8.13008 133.436 8.74208C134.139 9.35408 134.592 9.97742 134.796 10.6121C134.909 10.1134 135.068 9.68275 135.272 9.32008C135.499 8.93475 135.737 8.74208 135.986 8.74208C136.575 8.74208 137.221 8.95742 137.924 9.38808C138.649 9.79608 139.261 10.2834 139.76 10.8501C140.259 11.3941 140.508 11.8247 140.508 12.1421C140.485 12.5727 140.304 13.2868 139.964 14.2841C139.647 15.2814 139.125 16.8001 138.4 18.8401C137.969 19.9508 137.584 21.0047 137.244 22.0021ZM126.806 22.2741C128.642 21.1408 130.24 19.7467 131.6 18.0921C132.96 16.4147 133.889 14.5674 134.388 12.5501C133.776 12.2781 133.198 12.1421 132.654 12.1421C131.589 12.1421 130.637 12.6181 129.798 13.5701C128.959 14.5221 128.291 15.7688 127.792 17.3101C127.293 18.8514 126.965 20.5061 126.806 22.2741Z" fill="#006ACC" fill-opacity="0.85"/>
<path d="M155.475 11.8701C154.455 12.6407 153.627 13.4001 152.993 14.1481C152.381 14.8961 152.075 15.5307 152.075 16.0521C152.075 16.3014 152.29 16.5621 152.721 16.8341C153.151 17.0834 153.865 17.4348 154.863 17.8881C156.449 18.6134 157.696 19.2934 158.603 19.9281C159.509 20.5401 159.963 21.2541 159.963 22.0701C159.963 22.8861 159.498 23.6794 158.569 24.4501C157.662 25.1981 156.529 25.8101 155.169 26.2861C153.809 26.7621 152.539 27.0001 151.361 27.0001C150.477 27.0001 149.547 26.8187 148.573 26.4561C147.598 26.0707 146.782 25.5948 146.125 25.0281C145.467 24.4388 145.139 23.8834 145.139 23.3621C145.139 22.4328 145.433 21.6961 146.023 21.1521C146.635 20.5854 147.428 20.3021 148.403 20.3021C148.856 20.3021 149.321 20.3701 149.797 20.5061C150.182 21.7301 150.511 22.6027 150.783 23.1241C152.165 22.7614 153.401 22.1494 154.489 21.2881C152.585 20.4721 150.839 19.5541 149.253 18.5341C147.689 17.5141 146.907 16.5621 146.907 15.6781C146.907 14.7714 147.326 13.6947 148.165 12.4481C149.003 11.1787 150.069 10.0907 151.361 9.18408C152.675 8.25475 154.013 7.79008 155.373 7.79008C156.302 7.79008 157.186 8.06208 158.025 8.60608C158.886 9.15008 159.577 9.83008 160.099 10.6461C160.62 11.4621 160.881 12.2554 160.881 13.0261C160.881 13.7741 160.586 14.3861 159.997 14.8621C159.43 15.3154 158.705 15.5421 157.821 15.5421C157.254 15.5421 156.676 15.4288 156.087 15.2021C156.041 14.2954 155.837 13.1847 155.475 11.8701Z" fill="#006ACC" fill-opacity="0.85"/>
<path d="M170.054 13.6381C169.306 17.0608 168.819 19.8487 168.592 22.0021C170.043 21.2994 171.21 20.5741 172.094 19.8261C173.092 20.1661 173.828 20.6421 174.304 21.2541C174.803 21.8434 175.052 22.5234 175.052 23.2941C175.052 23.8381 174.667 24.4048 173.896 24.9941C173.126 25.5608 172.208 26.0367 171.142 26.4221C170.077 26.8074 169.17 27.0001 168.422 27.0001C167.765 27.0001 167.028 26.8074 166.212 26.4221C165.419 26.0141 164.739 25.5494 164.172 25.0281C163.606 24.4841 163.322 24.0194 163.322 23.6341C163.322 23.3167 163.436 22.6368 163.662 21.5941C163.912 20.5288 164.127 19.6221 164.308 18.8741C164.512 18.1034 164.66 17.5368 164.75 17.1741L165.566 13.9101L163.492 14.0461C163.107 13.8647 162.812 13.5814 162.608 13.1961C162.404 12.8107 162.302 12.3687 162.302 11.8701C162.302 10.9634 162.631 10.1928 163.288 9.55808C164.104 9.60342 165.102 9.64875 166.28 9.69408C166.28 8.24342 166.439 6.64542 166.756 4.90008C167.074 3.13208 167.425 2.24808 167.81 2.24808C168.286 2.24808 168.887 2.45208 169.612 2.86008C170.338 3.26808 170.972 3.74408 171.516 4.28808C172.06 4.83208 172.332 5.30808 172.332 5.71608C172.332 6.23742 172.23 6.77008 172.026 7.31408C171.845 7.83542 171.539 8.56075 171.108 9.49008C171.494 9.44475 172.468 9.28608 174.032 9.01408L174.814 8.87808C175.222 9.10475 175.528 9.43342 175.732 9.86408C175.959 10.2947 176.072 10.7594 176.072 11.2581C176.072 11.6661 175.993 12.0627 175.834 12.4481C175.676 12.8334 175.438 13.1621 175.12 13.4341L170.054 13.6381Z" fill="#006ACC" fill-opacity="0.85"/>
</svg>
