<svg width="108" height="89" viewBox="0 0 108 89" fill="none" xmlns="http://www.w3.org/2000/svg">
<path d="M19.4526 56.966C26.7309 68.869 41.5729 88.7955 73.7504 68.6035C105.928 48.4115 122.522 6.65636 83.54 22.9273C44.5576 39.1983 54.4777 41.3245 29.2422 11.2898C4.00674 -18.7448 12.1742 45.063 19.4526 56.966Z" fill="#5EA4B4"/>
<circle cx="56.3232" cy="21.6204" r="6" fill="#4C7680"/>
<ellipse cx="33.8232" cy="47.1204" rx="33.5" ry="32.5" fill="#BFEFFA" fill-opacity="0.72"/>
<path d="M58.4928 70.0897L58.4927 70.0898L58.4986 70.0929C59.7493 70.7573 60.8785 71.1203 61.8682 71.1203C62.3952 71.1203 62.7975 70.8118 63.0822 70.3847C63.3604 69.9674 63.567 69.3847 63.7243 68.6768C64.034 67.2829 64.3594 65.1341 64.7017 62.2431L64.7018 62.2431L64.7026 62.2353C64.8427 60.8691 65.0317 59.3548 65.2699 57.6921C69.2163 57.3593 72.6782 56.5032 75.6462 55.1131C78.7048 53.6806 81.0585 51.8659 82.6772 49.6552C84.328 47.4146 85.1682 45.0328 85.1682 42.5193C85.1682 39.6996 84.2299 37.3279 82.3445 35.4416C80.4903 33.5486 78.0763 32.1616 75.1239 31.268C72.2213 30.378 69.0746 29.9353 65.6872 29.9353C62.4905 29.9353 59.3323 30.3398 56.2137 31.1483L55.9971 31.2044L55.8947 31.4033C55.2194 32.7143 54.8702 34.0084 54.8702 35.2803C54.8702 37.085 55.5124 38.6061 56.7956 39.8064L56.9749 39.9742L57.2172 39.9349L58.6333 39.7052C58.4283 40.8452 58.1087 42.4706 57.6735 44.5845L57.6734 44.5845L57.6723 44.5901C57.1783 47.136 56.8182 48.9368 56.5913 49.9955L56.5904 49.9999C55.6591 54.542 54.9601 58.0749 54.4938 60.5971C54.2606 61.858 54.0851 62.8692 53.9676 63.6291C53.8523 64.3748 53.7872 64.9132 53.7872 65.2053C53.7872 65.6153 53.9426 66.0292 54.1872 66.4332C54.4337 66.8405 54.791 67.2713 55.2446 67.7249L55.2445 67.7249L55.2522 67.7323C56.1978 68.6385 57.2788 69.424 58.4928 70.0897ZM73.0262 46.7926C71.447 47.9684 69.2126 48.8859 66.2917 49.522C66.4728 48.3918 66.7771 46.6199 67.2055 44.2026L67.2061 44.1992L68.0563 39.2043C68.6971 39.1253 69.2941 39.0863 69.8482 39.0863C71.6835 39.0863 73.0691 39.4722 74.0579 40.1883L74.0658 40.194L74.0738 40.1993C75.107 40.8881 75.5612 41.6958 75.5612 42.6333C75.5612 44.0949 74.7728 45.4823 73.0262 46.7926ZM52.0216 32.1782L51.9902 31.9878L51.8391 31.8677C50.4693 30.7799 48.9749 30.2203 47.3672 30.2203C45.0562 30.2203 42.9174 31.3606 40.9552 33.519L40.7718 33.7207L40.8421 33.9841C41.4378 36.2183 41.7372 38.6067 41.7372 41.1513C41.7372 44.5608 41.2502 47.9334 40.2754 51.2706C39.2991 54.5747 38.0483 57.2534 36.534 59.3222C35.014 61.3606 33.5483 62.2543 32.1482 62.2543C31.9912 62.2543 31.8663 62.2074 31.7515 62.1084C31.6269 62.0011 31.4941 61.8138 31.3748 61.5052C31.1332 60.8805 30.9952 59.8866 30.9952 58.4793C30.9952 55.6054 31.4999 51.8649 32.522 47.2462C33.5831 42.623 34.6579 39.0667 35.742 36.5619L35.8115 36.4015L35.7659 36.2329C35.3599 34.7308 34.5787 33.5455 33.4125 32.7108C32.2554 31.8446 30.8955 31.4173 29.3552 31.4173C27.9102 31.4173 26.5247 31.7391 25.204 32.3794L25.0038 32.4765L24.9419 32.6903C23.6804 37.0481 22.5934 42.181 21.6791 48.0858C20.7667 53.9779 20.3052 58.2858 20.3052 60.9873C20.3052 62.3928 21.1313 63.9171 22.6004 65.5408L22.6004 65.5408L22.6045 65.5452C24.0849 67.1426 25.8351 68.5222 27.8513 69.6854L27.8513 69.6855L27.8612 69.6909C29.9142 70.8143 31.7662 71.4053 33.4022 71.4053C36.6027 71.4053 39.7011 69.982 42.6901 67.2259C45.6846 64.4648 48.0974 60.7089 49.942 55.9821C51.7913 51.2432 52.7122 46.0126 52.7122 40.2963C52.7122 37.6829 52.4816 34.9767 52.0216 32.1782Z" fill="white" stroke="#5EA4B4"/>
</svg>
